<svg xmlns="http://www.w3.org/2000/svg" xmlns:xlink="http://www.w3.org/1999/xlink" version="1.1" width="256" height="256" viewBox="0 0 256 256" xml:space="preserve">
<desc>Created with Fabric.js 1.7.22</desc>
<defs>
</defs>
<g transform="translate(128 128) scale(0.72 0.72)" style="">
	<g style="stroke: none; stroke-width: 0; stroke-dasharray: none; stroke-linecap: butt; stroke-linejoin: miter; stroke-miterlimit: 10; fill: none; fill-rule: nonzero; opacity: 1;" transform="translate(-175.05 -175.05000000000004) scale(3.89 3.89)" >
	<circle cx="29.083000000000002" cy="38.553" r="4.393" style="stroke: none; stroke-width: 1; stroke-dasharray: none; stroke-linecap: butt; stroke-linejoin: miter; stroke-miterlimit: 10; fill: rgb(0,0,0); fill-rule: nonzero; opacity: 1;" transform="  matrix(1 0 0 1 0 0) "/>
	<circle cx="60.913000000000004" cy="38.553" r="4.393" style="stroke: none; stroke-width: 1; stroke-dasharray: none; stroke-linecap: butt; stroke-linejoin: miter; stroke-miterlimit: 10; fill: rgb(0,0,0); fill-rule: nonzero; opacity: 1;" transform="  matrix(1 0 0 1 0 0) "/>
	<path d="M 45 90 C 20.187 90 0 69.813 0 45 C 0 20.187 20.187 0 45 0 c 24.813 0 45 20.187 45 45 C 90 69.813 69.813 90 45 90 z M 45 8 C 24.598 8 8 24.598 8 45 c 0 20.402 16.598 37 37 37 c 20.402 0 37 -16.598 37 -37 C 82 24.598 65.402 8 45 8 z" style="stroke: none; stroke-width: 1; stroke-dasharray: none; stroke-linecap: butt; stroke-linejoin: miter; stroke-miterlimit: 10; fill: rgb(0,0,0); fill-rule: nonzero; opacity: 1;" transform=" matrix(1 0 0 1 0 0) " stroke-linecap="round" />
	<path d="M 24.413 68.274 c -1.015 0 -2.03 -0.384 -2.81 -1.153 c -1.572 -1.552 -1.589 -4.084 -0.038 -5.656 C 27.812 55.136 36.134 51.65 45 51.65 c 8.866 0 17.188 3.485 23.435 9.814 c 1.551 1.572 1.534 4.105 -0.038 5.657 c -1.572 1.55 -4.104 1.534 -5.657 -0.038 C 58.01 62.29 51.709 59.65 45 59.65 s -13.009 2.64 -17.74 7.434 C 26.478 67.877 25.445 68.274 24.413 68.274 z" style="stroke: none; stroke-width: 1; stroke-dasharray: none; stroke-linecap: butt; stroke-linejoin: miter; stroke-miterlimit: 10; fill: rgb(0,0,0); fill-rule: nonzero; opacity: 1;" transform=" matrix(1 0 0 1 0 0) " stroke-linecap="round" />
	<path d="M 27.269 26.561 c -1.895 0 -3.577 -1.351 -3.93 -3.281 c -0.397 -2.173 1.042 -4.257 3.215 -4.654 l 9.811 -1.795 c 2.173 -0.395 4.257 1.042 4.654 3.215 s -1.042 4.257 -3.215 4.654 l -9.811 1.795 C 27.75 26.54 27.508 26.561 27.269 26.561 z" style="stroke: none; stroke-width: 1; stroke-dasharray: none; stroke-linecap: butt; stroke-linejoin: miter; stroke-miterlimit: 10; fill: rgb(0,0,0); fill-rule: nonzero; opacity: 1;" transform=" matrix(1 0 0 1 0 0) " stroke-linecap="round" />
	<path d="M 63.685 32.065 c -0.239 0 -0.481 -0.021 -0.725 -0.066 l -9.811 -1.795 c -2.174 -0.397 -3.612 -2.481 -3.215 -4.655 c 0.398 -2.173 2.486 -3.61 4.654 -3.214 l 9.811 1.795 c 2.174 0.397 3.612 2.481 3.215 4.655 C 67.261 30.714 65.578 32.065 63.685 32.065 z" style="stroke: none; stroke-width: 1; stroke-dasharray: none; stroke-linecap: butt; stroke-linejoin: miter; stroke-miterlimit: 10; fill: rgb(0,0,0); fill-rule: nonzero; opacity: 1;" transform=" matrix(1 0 0 1 0 0) " stroke-linecap="round" />
</g>
</g>
</svg>